<svg width="63" height="72" viewBox="0 0 63 72" version="1.1" xmlns="http://www.w3.org/2000/svg" xmlns:xlink="http://www.w3.org/1999/xlink">
<title>Prysm</title>
<desc>Created using Figma</desc>
<g id="Canvas" transform="translate(19 415)">
<g id="Prysm">
<g id="Group 2">
<g id="Polygon 2">
<use xlink:href="#path0_fill" transform="matrix(-5.54444e-17 1 1 5.5578e-17 -18.6404 -417)" fill="#00FFFF"/>
</g>
<g id="Polygon 2.2">
<use xlink:href="#path0_fill" transform="matrix(5.54444e-17 1 -1 5.5578e-17 43.5121 -417)" fill="#009695"/>
</g>
<g id="Polygon 2">
<use xlink:href="#path1_fill" transform="matrix(0.93956 0.342384 0.341657 -0.939825 -22 -386.671)" fill="#00FFFF"/>
</g>
<g id="Polygon 2.1">
<use xlink:href="#path2_fill" transform="matrix(-0.93956 0.342384 -0.341657 -0.939825 47 -385.814)" fill="#009695"/>
</g>
<g id="Polygon">
<use xlink:href="#path3_fill" transform="matrix(1 0 0 -1 -15.8407 -343)" fill="#00FFFF"/>
</g>
<g id="Polygon">
<use xlink:href="#path4_fill" transform="matrix(-1 1.22612e-16 1.22317e-16 1 36.5703 -413.636)" fill="#00C1C1"/>
<use xlink:href="#path5_fill" transform="matrix(-1 1.22612e-16 1.22317e-16 1 36.5703 -413.636)" fill="#00C1C1"/>
</g>
</g>
<g id="Polygon">
<use xlink:href="#path6_fill" transform="matrix(1 3.47362e-18 3.46528e-18 -1 -13.0411 -371.591)" fill="#FFFFFF"/>
</g>
<g id="Rectangle 2">
<use xlink:href="#path7_fill" transform="matrix(1 0 0 -1 39.0326 -388.97)" fill="#009695"/>
</g>
<g id="Rectangle">
<use xlink:href="#path8_fill" transform="matrix(1 0 0 -1 36.2329 -385.045)" fill="#009695"/>
</g>
</g>
</g>
<defs>
<path id="path0_fill" d="M 21.5833 0L 40.275 31.0762L 2.89162 31.0762L 21.5833 0Z"/>
<path id="path1_fill" d="M 12.3101 -1.07754e-06L 24.6201 9.45339L -1.20312e-05 9.45339L 12.3101 -1.07754e-06Z"/>
<path id="path2_fill" d="M 12.5833 -1.1564e-06L 25.1665 10.1452L -1.22982e-05 10.1452L 12.5833 -1.1564e-06Z"/>
<path id="path3_fill" d="M 28.5565 0L 53.2872 42.0455L 3.82585 42.0455L 28.5565 0Z"/>
<path id="path4_fill" d="M 24.1345 -3.98335e-15L 48.4915 28.5909L 0 28.5909L 24.1345 -3.98335e-15Z"/>
<path id="path5_fill" d="M 24.1345 -3.98335e-15L 48.4915 28.5909L 0 28.5909L 24.1345 -3.98335e-15Z"/>
<path id="path6_fill" d="M 8.67895 0L 16.1951 13.4545L 1.16276 13.4545L 8.67895 0Z"/>
<path id="path7_fill" d="M 0 0L 0.559932 0L 0.559932 1.12121L 0 1.12121L 0 0Z"/>
<path id="path8_fill" d="M 0 0L 1.11986 0L 1.11986 1.68182L 0 1.68182L 0 0Z"/>
</defs>
</svg>
