<?xml version="1.0" encoding="utf-8" standalone="yes"?>
<!DOCTYPE svg PUBLIC "-//W3C//DTD SVG 1.1//EN" "http://www.w3.org/Graphics/SVG/1.1/DTD/svg11.dtd">
<svg xmlns="http://www.w3.org/2000/svg" xmlns:xlink="http://www.w3.org/1999/xlink" xmlns:dc="http://purl.org/dc/elements/1.1/" xmlns:cc="http://web.resource.org/cc/" xmlns:rdf="http://www.w3.org/1999/02/22-rdf-syntax-ns#" xmlns:sodipodi="http://sodipodi.sourceforge.net/DTD/sodipodi-0.dtd" xmlns:inkscape="http://www.inkscape.org/namespaces/inkscape" version="1.1" baseProfile="full" width="400px" height="173px" viewBox="0 0 400 173" preserveAspectRatio="xMidYMid meet" id="svg_document" style="zoom: 1;"><title id="svg_document_title">Untitled.svg</title><defs id="svg_document_defs"></defs><g id="main_group"></g><path stroke="none" id="rect1" stroke-width="3px" d="M-15.126291,107.019348 L371.244019,3.491768 L375.126312,17.980648 L-11.244011,121.508255 L-15.126291,107.019348  Z " fill="#eb4a9d" transform=""></path><path stroke="none" id="rect2" stroke-width="3px" d="M-11.244011,121.508255 L375.126312,17.980648 L379.008606,32.469528 L-7.36172,135.997131 L-11.244011,121.508255  Z " fill="#fbe5a0" transform=""></path><path stroke="none" id="rect3" stroke-width="3px" d="M-7.36172,135.997131 L379.008606,32.469528 L382.890869,46.958412 L-3.479446,150.486023 L-7.36172,135.997131  Z " fill="#52b0f8" transform=""></path><svg xmlns="http://www.w3.org/2000/svg" xmlns:xlink="http://www.w3.org/1999/xlink" width="153" id="svg1" x="75" height="173" version="1.1"><title>Prysm</title><desc>Created using Figma</desc><g id="Canvas" transform="translate(451 524)"><g id="Prysm"><g id="Group 2"><g id="Polygon 2"><use xlink:href="#path0_fill" transform="matrix(-5.5498e-17 -1 1 -5.55243e-17 -449.82 -344)" fill="#00FFFF"></use></g><g id="Polygon 2.2"><use xlink:href="#path0_fill" transform="matrix(5.5498e-17 -1 -1 -5.55243e-17 -298.492 -344)" fill="#009695"></use></g><g id="Polygon 2"><use xlink:href="#path1_fill" transform="matrix(0.939667 -0.342092 0.341949 0.939719 -458 -417.773)" fill="#00FFFF"></use></g><g id="Polygon 2.1"><use xlink:href="#path2_fill" transform="matrix(-0.939667 -0.342092 -0.341949 0.939719 -290 -419.859)" fill="#009695"></use></g><g id="Polygon"><use xlink:href="#path3_fill" transform="translate(-443.004 -524)" fill="#00FFFF"></use></g><g id="Polygon"><use xlink:href="#path4_fill" transform="matrix(-1 -1.22494e-16 1.22436e-16 -1 -315.394 -352.182)" fill="#00C1C1"></use><use xlink:href="#path5_fill" transform="matrix(-1 -1.22494e-16 1.22436e-16 -1 -315.394 -352.182)" fill="#00C1C1"></use></g></g><g id="Polygon"><use xlink:href="#path6_fill" transform="matrix(0.999848 0.0174524 -0.0174524 0.999848 -436.113 -455.381)" fill="#FFFFFF"></use></g><g id="Rectangle 2"><use xlink:href="#path7_fill" transform="translate(-309.399 -412.182)" fill="#009695"></use></g><g id="Rectangle"><use xlink:href="#path8_fill" transform="translate(-316.215 -421.727)" fill="#009695"></use></g></g></g><defs><path id="path0_fill" d="M 52.5 0L 97.9663 75.6639L 7.03366 75.6639L 52.5 0Z"></path><path id="path1_fill" d="M 29.969 -2.62135e-06L 59.9379 22.9973L -2.92901e-05 22.9973L 29.969 -2.62135e-06Z"></path><path id="path2_fill" d="M 30.6341 -2.81319e-06L 61.2681 24.6804L -2.99401e-05 24.6804L 30.6341 -2.81319e-06Z"></path><path id="path3_fill" d="M 69.529 0L 129.743 102.273L 9.31511 102.273L 69.529 0Z"></path><path id="path4_fill" d="M 58.7622 -9.68922e-15L 118.066 69.5455L 0 69.5455L 58.7622 -9.68922e-15Z"></path><path id="path5_fill" d="M 58.7622 -9.68922e-15L 118.066 69.5455L 0 69.5455L 58.7622 -9.68922e-15Z"></path><path id="path6_fill" d="M 22 0L 41.0526 33L 2.94744 33L 22 0Z"></path><path id="path7_fill" d="M 0 0L 1.36331 0L 1.36331 2.72727L 0 2.72727L 0 0Z"></path><path id="path8_fill" d="M 0 0L 2.72663 0L 2.72663 4.09091L 0 4.09091L 0 0Z"></path></defs></svg></svg>