<?xml version="1.0" encoding="utf-8"?>
<!-- Generator: Adobe Illustrator 16.0.0, SVG Export Plug-In . SVG Version: 6.00 Build 0)  -->
<!DOCTYPE svg PUBLIC "-//W3C//DTD SVG 1.1//EN" "http://www.w3.org/Graphics/SVG/1.1/DTD/svg11.dtd">
<svg version="1.1" id="Layer_1" xmlns="http://www.w3.org/2000/svg" xmlns:xlink="http://www.w3.org/1999/xlink" x="0px" y="0px"
	 width="600px" height="600px" viewBox="906 950 600 600" enable-background="new 906 950 600 600" xml:space="preserve">
<path fill="#04FFCC" d="M1474.438,1204.237c-3.799-18.511-10.587-36.28-20.097-52.609c-19.508-32.511-62.067-79.801-115.269-117.04
	c0,0-40.195-26.01-59.11-34.876c-69.161-31.92-146.597-38.423-212.802,20.098c-111.13,98.717-166.695,236.446-111.13,373.585
	c1.182,2.955,31.92,86.894,216.348,143.05c80.983,2.364,128.271-2.364,180.291-32.512
	c67.978-39.014,107.582-109.947,121.769-182.063C1478.576,1299.998,1479.168,1226.109,1474.438,1204.237"/>
<path fill="#7DF8FB" d="M1259.273,1009.761v131.818l-152.508-9.457l-62.658,79.209l-7.685,149.552l52.019,55.565l78.027,39.013
	l102.263,11.231l111.129-28.373v-274.868l-21.28-114.086c0,0-59.702-46.698-98.716-57.93"/>
<g>
	<path fill="#2C398F" d="M1437.79,1336.647c-21.28-1.183-9.458-34.876-18.916-73.299c-11.231-42.56,5.32-72.115,27.191-70.934
		c10.271,1.601,20.005,5.656,28.373,11.822c-3.799-18.511-10.587-36.28-20.097-52.609c-19.508-32.511-62.067-79.801-115.269-117.04
		v356.442c0.021,19.881-16.081,36.015-35.962,36.035c-13.956,0.014-26.663-8.04-32.607-20.667
		c-65.848,40.813-152.313,20.516-193.124-45.332c-40.812-65.849-20.516-152.313,45.332-193.125
		c44.006-27.273,99.456-28.091,144.246-2.127v-138.32c-0.198-10.774,4.604-21.033,13.005-27.782
		c-69.161-31.92-146.597-38.423-212.802,20.098c-111.13,98.717-166.695,236.446-111.13,373.585c1.182,2.955,2.364,5.911,3.547,8.275
		c1.625-3.317,3.826-6.32,6.502-8.867c28.965-29.555,60.885,30.738,128.863,65.614c43.151,21.871,67.979,50.836,77.436,78.027
		c63.25,7.685,128.272-2.364,180.291-32.512c67.978-39.014,107.582-109.947,121.769-182.063
		C1464.229,1330.772,1451.319,1335.979,1437.79,1336.647L1437.79,1336.647z M1206.073,1056.459
		c15.96-0.592,30.737,18.324,31.329,27.191c0.591,8.866-13.596,5.319-28.965,10.64c-17.143,5.911-29.556,0.591-30.147-8.276
		C1177.699,1077.147,1189.521,1057.05,1206.073,1056.459z"/>
	<path fill="#2C398F" d="M1171.197,1339.012c34.284,19.507,75.662,11.822,83.348-31.92c4.138-25.419,1.772-65.023-20.689-77.437
		C1159.375,1187.095,1096.717,1296.452,1171.197,1339.012"/>
</g>
</svg>
