<svg id="Layer_5" enable-background="new 0 0 64 64" height="512" viewBox="0 0 64 64" width="512" xmlns="http://www.w3.org/2000/svg"><circle cx="14" cy="8" fill="#ff826e" r="2"/><circle cx="18" cy="16" fill="#ff826e" r="2"/><path d="m59.48 8c-2.52-3.63-6.73-6-11.48-6s-8.96 2.37-11.48 6c-.45.63-.84 1.3-1.17 2-.87 1.82-1.35 3.86-1.35 6 0 .68.05 1.35.15 2 .2 1.41.63 2.76 1.22 4h7.21 7.42c1.1 0 2 .9 2 2v4 1.41c3.07-.91 5.69-2.85 7.48-5.41 1.59-2.27 2.52-5.02 2.52-8 0-2.97-.93-5.73-2.52-8z" fill="#69d6f4"/><path d="m52 29.41v30.59c0 1.1-.9 2-2 2h-46c-1.1 0-2-.9-2-2v-30h15l2-2h33z" fill="#e6e9ed"/><path d="m14 55v2c0 .55-.45 1-1 1h-6c-.55 0-1-.45-1-1v-2c0-.55.45-1 1-1h6c.55 0 1 .45 1 1z" fill="#ff826e"/><path d="m26 55v2c0 .55-.45 1-1 1h-6c-.55 0-1-.45-1-1v-2c0-.55.45-1 1-1h6c.55 0 1 .45 1 1z" fill="#ff826e"/><path d="m34 32h14v14h-14z" fill="#5cd6b3"/><path d="m2 30v-6c0-1.1.9-2 2-2h31.37 7.21 7.42c1.1 0 2 .9 2 2v4h-33l-2 2z" fill="#fcd770"/><path d="m7 45h4v4h2v-10c0-2.206-1.794-4-4-4s-4 1.794-4 4v10h2zm2-8c1.103 0 2 .897 2 2v4h-4v-4c0-1.103.897-2 2-2z"/><path d="m17 43h2c2.206 0 4-1.794 4-4s-1.794-4-4-4h-4v14h2zm0-6h2c1.103 0 2 .897 2 2s-.897 2-2 2h-2z"/><path d="m24 37h2v10h-2v2h6v-2h-2v-10h2v-2h-6z"/><path d="m5 25h2v2h-2z"/><path d="m9 25h2v2h-2z"/><path d="m13 25h2v2h-2z"/><path d="m33 47h16v-16h-16zm2-14h12v12h-12z"/><path d="m47 53h2v2h-2z"/><path d="m33 53h12v2h-12z"/><path d="m33 49h16v2h-16z"/><path d="m33 57h16v2h-16z"/><path d="m13 53h-6c-1.103 0-2 .897-2 2v2c0 1.103.897 2 2 2h6c1.103 0 2-.897 2-2v-2c0-1.103-.897-2-2-2zm-6 4v-2h6l.001 2z"/><path d="m25 53h-6c-1.103 0-2 .897-2 2v2c0 1.103.897 2 2 2h6c1.103 0 2-.897 2-2v-2c0-1.103-.897-2-2-2zm-6 4v-2h6l.001 2z"/><path d="m63 16c0-8.271-6.729-15-15-15-5.743 0-10.737 3.248-13.256 8h-8.33l-2-2h-7.598c-.414-1.161-1.514-2-2.816-2-1.654 0-3 1.346-3 3s1.346 3 3 3c1.302 0 2.402-.839 2.816-2h6.77l2 2h8.289c-.556 1.567-.875 3.245-.875 5 0 .336.033.667.056 1h-2.641l-2-2h-7.598c-.414-1.161-1.514-2-2.816-2-1.654 0-3 1.346-3 3s1.346 3 3 3c1.302 0 2.402-.839 2.816-2h6.77l2 2h3.733c.14.676.321 1.344.556 2h-29.876c-1.654 0-3 1.346-3 3v36c0 1.654 1.346 3 3 3h46c1.654 0 3-1.346 3-3v-29.875c5.921-2.1 10-7.796 10-14.125zm-49-7c-.551 0-1-.449-1-1s.449-1 1-1 1 .449 1 1-.449 1-1 1zm4 8c-.551 0-1-.449-1-1s.449-1 1-1 1 .449 1 1-.449 1-1 1zm25.417 4c-.219-1.279-.351-2.617-.394-4h9.945c-.057 1.816-.257 3.566-.61 5.167-.55-.705-1.397-1.167-2.358-1.167zm-8.366-6c.169-2.198.883-4.242 2.012-6h4.698c-.422 1.795-.678 3.82-.739 6zm8.784-6h8.33c.448 1.721.745 3.746.814 6h-9.957c.068-2.254.366-4.279.813-6zm4.165-6c1.243 0 2.558 1.487 3.528 4h-7.057c.971-2.513 2.286-4 3.529-4zm12.949 12h-5.971c-.061-2.18-.317-4.205-.739-6h4.698c1.129 1.758 1.844 3.802 2.012 6zm-5.982 2h5.991c-.17 2.168-.89 4.222-2.032 6h-4.718c.441-1.851.697-3.884.759-6zm2.392-10h-3.693c-.44-1.295-.974-2.421-1.588-3.335 2.028.672 3.832 1.829 5.281 3.335zm-13.437-3.335c-.615.914-1.149 2.04-1.589 3.335h-3.693c1.45-1.506 3.254-2.663 5.282-3.335zm-8.866 13.335h5.968c.04 1.376.16 2.714.364 4h-5.353c-.544-1.289-.873-2.627-.979-4zm-31.056 6h46c.551 0 1 .449 1 1v3h-32.414l-2 2h-13.586v-5c0-.551.449-1 1-1zm46 38h-46c-.551 0-1-.449-1-1v-29h14.414l2-2h31.586v31c0 .551-.449 1-1 1zm3-33.015v-2.985h4.341c-1.215 1.265-2.683 2.291-4.341 2.985z"/><path d="m45 11h2v2h-2z"/><path d="m49 11h2v2h-2z"/></svg>