<svg width="291" height="377" viewBox="0 0 291 377" fill="none" xmlns="http://www.w3.org/2000/svg">
<path d="M151.856 346.947H152.795V250.244H142.17V346.947H143.12C136.998 348.847 132.448 354.359 132.448 361.09C132.448 369.393 139.191 376.137 147.482 376.137C155.773 376.137 162.516 369.393 162.516 361.09C162.516 354.359 157.966 348.847 151.856 346.947ZM147.482 365.523C145.043 365.523 143.061 363.53 143.061 361.09C143.061 358.663 145.043 356.669 147.482 356.669C149.921 356.669 151.903 358.663 151.903 361.09C151.903 363.53 149.921 365.523 147.482 365.523Z" fill="#838383"/>
<path d="M209.695 332.98V278.389C209.695 277.369 209.402 276.361 208.839 275.505L186.405 241.003V230.19H175.803V242.574C175.803 243.595 176.096 244.603 176.647 245.459L199.082 279.973V332.992C193.429 335.149 189.36 340.544 189.36 346.947C189.36 355.238 196.091 361.981 204.382 361.981C212.674 361.981 219.429 355.238 219.429 346.947C219.429 340.532 215.347 335.138 209.695 332.98ZM204.382 351.368C201.955 351.368 199.961 349.375 199.961 346.947C199.961 344.508 201.955 342.526 204.382 342.526C206.833 342.526 208.804 344.508 208.804 346.947C208.792 349.375 206.822 351.368 204.382 351.368Z" fill="#838383"/>
<path d="M119.747 233.521L111.467 226.86L82.3133 263.144C81.5628 264.094 81.1406 265.278 81.1406 266.475V323.258C75.4763 325.428 71.4187 330.81 71.4187 337.214C71.4187 345.505 78.1502 352.248 86.4413 352.248C94.7325 352.248 101.487 345.505 101.487 337.214C101.487 330.799 97.4063 325.416 91.7538 323.258V268.327L119.747 233.521ZM86.4413 341.635C84.0138 341.635 82.0202 339.653 82.0202 337.214C82.0202 334.786 84.0138 332.792 86.4413 332.792C88.8923 332.792 90.8625 334.786 90.8625 337.214C90.8625 339.653 88.8923 341.635 86.4413 341.635Z" fill="#838383"/>
<path d="M270.079 231.656L240.643 209.527V168.259H230.03V212.165C230.03 213.842 230.816 215.402 232.153 216.411L261.588 238.54V265.079L244.08 276.56C242.59 277.533 241.687 279.21 241.687 280.993V305.245C236.035 307.403 231.965 312.797 231.965 319.2C231.965 327.491 238.708 334.235 247 334.235C255.291 334.235 262.034 327.491 262.034 319.2C262.034 312.785 257.953 307.391 252.3 305.245V283.854L269.797 272.373C271.299 271.388 272.202 269.711 272.202 267.94V235.89C272.202 234.213 271.404 232.665 270.079 231.656ZM246.988 323.621C244.549 323.621 242.567 321.628 242.567 319.2C242.567 316.761 244.549 314.779 246.988 314.779C249.427 314.779 251.409 316.761 251.409 319.2C251.409 321.64 249.427 323.621 246.988 323.621Z" fill="#838383"/>
<path d="M55.1883 231.375L19.7837 263.39C18.6696 264.399 18.048 265.818 18.048 267.331V312.633C12.3838 314.791 8.31439 320.174 8.31439 326.577C8.31439 334.868 15.0458 341.611 23.337 341.611C31.6399 341.611 38.3831 334.868 38.3831 326.577C38.3831 320.162 34.302 314.779 28.6495 312.633V269.676L64.0658 237.661C65.1682 236.652 65.8015 235.221 65.8015 233.72V168.259H55.1883V231.375ZM23.337 331.01C20.9095 331.01 18.9158 329.028 18.9158 326.588C18.9158 324.161 20.9095 322.167 23.337 322.167C25.788 322.167 27.7699 324.161 27.7699 326.588C27.7699 329.028 25.788 331.01 23.337 331.01Z" fill="#838383"/>
<path d="M264.18 105.495C266.877 98.0713 268.437 90.1085 268.437 81.7587C268.437 43.4105 237.36 12.3332 199.035 12.3332C182.288 12.3332 167.031 18.3258 155.081 28.1885C154.624 28.552 154.178 28.8921 153.756 29.2557C146.708 35.3538 140.879 42.8358 136.74 51.3029C132.225 60.5088 129.621 70.8171 129.621 81.7704C129.621 91.3516 131.568 100.487 135.074 108.79C135.074 108.79 70.0936 122.769 102.473 40.678C69.085 40.678 42.0302 67.7563 42.0302 101.132C42.0302 101.941 42.124 102.715 42.1592 103.513C24.2868 111.968 11.8911 130.11 11.8911 151.184C11.8911 180.303 35.5216 203.933 64.6521 203.933H237.876C267.006 203.933 290.625 180.303 290.625 151.184C290.613 131.623 279.977 114.618 264.18 105.495Z" fill="#C8C8C8"/>
<path d="M252.711 94.0016C255.408 86.5783 256.956 78.6037 256.956 70.2539C256.956 31.9175 225.89 0.86364 187.542 0.86364C170.819 0.86364 155.538 6.83282 143.588 16.6955C143.154 17.059 142.697 17.3991 142.263 17.7626C135.215 23.8843 129.387 31.3545 125.247 39.7982C120.732 49.0158 118.152 59.3241 118.152 70.2656C118.152 79.8703 120.075 88.9824 123.605 97.2853C123.605 97.2853 99.7049 72.2593 113.93 33.8876C106.847 30.9793 99.142 29.1967 91.0033 29.1967C57.604 29.1967 30.5492 56.2633 30.5492 89.6508C30.5492 90.4483 30.643 91.2223 30.6665 92.0197C12.8058 100.487 0.410095 118.629 0.410095 139.679C0.410095 168.81 24.0523 192.452 53.1711 192.452H226.395C255.525 192.452 279.156 168.81 279.156 139.679C279.132 120.13 268.484 103.125 252.711 94.0016Z" fill="white"/>
<path d="M221.504 192.464C221.504 233.275 188.363 266.474 147.47 266.474C106.577 266.474 73.4357 233.286 73.4357 192.464C73.4357 151.606 106.577 118.418 147.47 118.418C188.363 118.418 221.504 151.606 221.504 192.464Z" fill="#4D4D4D"/>
<path d="M147.482 257.667C111.526 257.667 82.2662 228.419 82.2662 192.452C82.2662 156.484 111.514 127.213 147.482 127.213C183.461 127.213 212.72 156.473 212.72 192.452C212.709 228.419 183.461 257.667 147.482 257.667Z" fill="#FFE596"/>
<path opacity="0.2" d="M115.642 249.341C125.036 254.618 135.919 257.667 147.482 257.667C183.461 257.667 212.72 228.42 212.72 192.452C212.72 180.901 209.671 169.983 204.382 160.589L115.642 249.341Z" fill="#FA9B1E"/>
<path d="M147.482 218.193L118.328 199.464L147.482 244.122L176.659 199.464L147.482 218.193Z" fill="#FF30A0"/>
<path d="M147.482 209.609L175.604 191.56L147.482 140.816L119.36 191.502L147.482 209.609Z" fill="#FF30A0"/>
</svg>
