<svg width="1464" height="1080" viewBox="0 0 1464 1080" fill="none" xmlns="http://www.w3.org/2000/svg">
<path d="M1464 0H0V1080H1464V0Z" fill="#152A2F"/>
<rect x="0.199463" y="496" width="1463.8" height="29.1261" fill="#FF30A0"/>
<rect y="522.748" width="1463.8" height="29.1261" fill="#FFE596"/>
<rect y="551.875" width="1463.8" height="29.1261" fill="#24B0FF"/>
<path d="M726.276 262L540 571.262L726.276 486.653V262Z" fill="#8891B1"/>
<path d="M726.276 486.653L540 571.262L726.276 681.456V486.653Z" fill="#63688E"/>
<path d="M913 571.262L726.5 262V486.653L913 571.262Z" fill="#63688E"/>
<path d="M726.275 681.456L912.775 571.262L726.275 486.653V681.456Z" fill="#464A75"/>
<path d="M540 606.722L726.276 869.303V716.692L540 606.722Z" fill="#8891B1"/>
<path d="M726.275 716.692V869.303L912.775 606.722L726.275 716.692Z" fill="#63688E"/>
</svg>
