<svg width="1687" height="838" viewBox="0 0 1687 838" fill="none" xmlns="http://www.w3.org/2000/svg">
<path d="M1687 0H0V838H1687V0Z" fill="#F0D583"/>
<rect x="0.229736" y="372" width="1686.77" height="32.21" fill="#FF30A0"/>
<rect y="401.58" width="1686.77" height="32.21" fill="#FFE596"/>
<rect y="433.791" width="1686.77" height="32.21" fill="#24B0FF"/>
<path d="M842.276 129L656 438.262L842.276 353.653V129Z" fill="#8891B1"/>
<path d="M842.276 353.653L656 438.262L842.276 548.456V353.653Z" fill="#63688E"/>
<path d="M1029 438.262L842.5 129V353.653L1029 438.262Z" fill="#63688E"/>
<path d="M842.275 548.456L1028.78 438.262L842.275 353.653V548.456Z" fill="#464A75"/>
<path d="M656 473.722L842.276 736.303V583.692L656 473.722Z" fill="#8891B1"/>
<path d="M842.275 583.692V736.303L1028.78 473.722L842.275 583.692Z" fill="#63688E"/>
</svg>
