<svg width="1694" height="838" viewBox="0 0 1694 838" fill="none" xmlns="http://www.w3.org/2000/svg">
<rect width="1693.02" height="838" fill="#A8A8A8"/>
<path d="M698.844 205.031C709.562 205.031 718.25 196.343 718.25 185.625C718.25 174.907 709.562 166.219 698.844 166.219C688.126 166.219 679.438 174.907 679.438 185.625C679.438 196.343 688.126 205.031 698.844 205.031Z" fill="#FF826E"/>
<path d="M737.656 282.656C748.374 282.656 757.062 273.968 757.062 263.25C757.062 252.532 748.374 243.844 737.656 243.844C726.938 243.844 718.25 252.532 718.25 263.25C718.25 273.968 726.938 282.656 737.656 282.656Z" fill="#FF826E"/>
<path d="M1140.14 185.625C1115.69 150.403 1074.84 127.406 1028.75 127.406C982.66 127.406 941.81 150.403 917.358 185.625C912.992 191.738 909.207 198.239 906.005 205.031C897.564 222.691 892.906 242.485 892.906 263.25C892.906 269.848 893.391 276.349 894.362 282.656C896.302 296.338 900.475 309.437 906.2 321.469H976.159H1048.16C1058.83 321.469 1067.56 330.202 1067.56 340.875V379.688V393.369C1097.35 384.539 1122.77 365.715 1140.14 340.875C1155.57 318.849 1164.59 292.165 1164.59 263.25C1164.59 234.432 1155.57 207.651 1140.14 185.625V185.625Z" fill="#69D6F4"/>
<path d="M1067.56 393.369V690.188C1067.56 700.861 1058.83 709.594 1048.16 709.594H601.812C591.139 709.594 582.406 700.861 582.406 690.188V399.094H727.953L747.359 379.688H1067.56V393.369Z" fill="#E6E9ED"/>
<path d="M698.844 641.672V661.078C698.844 666.415 694.477 670.781 689.141 670.781H630.922C625.585 670.781 621.219 666.415 621.219 661.078V641.672C621.219 636.335 625.585 631.969 630.922 631.969H689.141C694.477 631.969 698.844 636.335 698.844 641.672Z" fill="#FF826E"/>
<path d="M815.281 641.672V661.078C815.281 666.415 810.915 670.781 805.578 670.781H747.359C742.023 670.781 737.656 666.415 737.656 661.078V641.672C737.656 636.335 742.023 631.969 747.359 631.969H805.578C810.915 631.969 815.281 636.335 815.281 641.672Z" fill="#FF826E"/>
<path d="M892.906 418.5H1028.75V554.344H892.906V418.5Z" fill="#5CD6B3"/>
<path d="M582.406 399.094V340.875C582.406 330.202 591.139 321.469 601.812 321.469H906.2H976.159H1048.16C1058.83 321.469 1067.56 330.202 1067.56 340.875V379.688H747.359L727.953 399.094H582.406Z" fill="#FCD770"/>
<path d="M630.922 544.641H669.734V583.453H689.141V486.422C689.141 465.017 671.733 447.609 650.328 447.609C628.923 447.609 611.516 465.017 611.516 486.422V583.453H630.922V544.641ZM650.328 467.016C661.031 467.016 669.734 475.719 669.734 486.422V525.234H630.922V486.422C630.922 475.719 639.626 467.016 650.328 467.016Z" fill="black"/>
<path d="M727.953 525.234H747.359C768.764 525.234 786.172 507.827 786.172 486.422C786.172 465.017 768.764 447.609 747.359 447.609H708.547V583.453H727.953V525.234ZM727.953 467.016H747.359C758.062 467.016 766.766 475.719 766.766 486.422C766.766 497.124 758.062 505.828 747.359 505.828H727.953V467.016Z" fill="black"/>
<path d="M795.875 467.016H815.281V564.047H795.875V583.453H854.094V564.047H834.688V467.016H854.094V447.609H795.875V467.016Z" fill="black"/>
<path d="M611.516 350.578H630.922V369.984H611.516V350.578Z" fill="black"/>
<path d="M650.328 350.578H669.734V369.984H650.328V350.578Z" fill="black"/>
<path d="M689.141 350.578H708.547V369.984H689.141V350.578Z" fill="black"/>
<path d="M883.203 564.047H1038.45V408.797H883.203V564.047ZM902.609 428.203H1019.05V544.641H902.609V428.203Z" fill="black"/>
<path d="M1019.05 622.266H1038.45V641.672H1019.05V622.266Z" fill="black"/>
<path d="M883.203 622.266H999.641V641.672H883.203V622.266Z" fill="black"/>
<path d="M883.203 583.453H1038.45V602.859H883.203V583.453Z" fill="black"/>
<path d="M883.203 661.078H1038.45V680.484H883.203V661.078Z" fill="black"/>
<path d="M689.141 622.266H630.922C620.219 622.266 611.516 630.969 611.516 641.672V661.078C611.516 671.781 620.219 680.484 630.922 680.484H689.141C699.843 680.484 708.547 671.781 708.547 661.078V641.672C708.547 630.969 699.843 622.266 689.141 622.266ZM630.922 661.078V641.672H689.141L689.15 661.078H630.922Z" fill="black"/>
<path d="M805.578 622.266H747.359C736.657 622.266 727.953 630.969 727.953 641.672V661.078C727.953 671.781 736.657 680.484 747.359 680.484H805.578C816.281 680.484 824.984 671.781 824.984 661.078V641.672C824.984 630.969 816.281 622.266 805.578 622.266ZM747.359 661.078V641.672H805.578L805.588 661.078H747.359Z" fill="black"/>
<path d="M1174.3 263.25C1174.3 182.995 1109 117.703 1028.75 117.703C973.025 117.703 924.568 149.219 900.125 195.328H819.298L799.892 175.922H726.168C722.151 164.657 711.477 156.516 698.844 156.516C682.795 156.516 669.734 169.576 669.734 185.625C669.734 201.674 682.795 214.734 698.844 214.734C711.477 214.734 722.151 206.593 726.168 195.328H791.858L811.264 214.734H891.693C886.298 229.939 883.203 246.221 883.203 263.25C883.203 266.51 883.523 269.722 883.746 272.953H858.121L838.714 253.547H764.99C760.973 242.282 750.299 234.141 737.666 234.141C721.617 234.141 708.557 247.201 708.557 263.25C708.557 279.299 721.617 292.359 737.666 292.359C750.299 292.359 760.973 284.218 764.99 272.953H830.68L850.086 292.359H886.308C887.667 298.919 889.423 305.4 891.703 311.766H601.812C585.764 311.766 572.703 324.826 572.703 340.875V690.188C572.703 706.236 585.764 719.297 601.812 719.297H1048.16C1064.21 719.297 1077.27 706.236 1077.27 690.188V400.307C1134.72 379.93 1174.3 324.661 1174.3 263.25ZM698.844 195.328C693.497 195.328 689.141 190.971 689.141 185.625C689.141 180.279 693.497 175.922 698.844 175.922C704.19 175.922 708.547 180.279 708.547 185.625C708.547 190.971 704.19 195.328 698.844 195.328ZM737.656 272.953C732.31 272.953 727.953 268.596 727.953 263.25C727.953 257.904 732.31 253.547 737.656 253.547C743.003 253.547 747.359 257.904 747.359 263.25C747.359 268.596 743.003 272.953 737.656 272.953ZM984.281 311.766C982.156 299.355 980.875 286.373 980.458 272.953H1076.96C1076.4 290.574 1074.46 307.554 1071.04 323.089C1065.7 316.248 1057.48 311.766 1048.16 311.766H984.281ZM903.104 253.547C904.744 232.219 911.672 212.386 922.627 195.328H968.212C964.117 212.745 961.633 232.394 961.042 253.547H903.104ZM988.336 195.328H1069.16C1073.51 212.027 1076.39 231.676 1077.06 253.547H980.448C981.108 231.676 983.999 212.027 988.336 195.328ZM1028.75 137.109C1040.81 137.109 1053.57 151.538 1062.98 175.922H994.508C1003.93 151.538 1016.69 137.109 1028.75 137.109ZM1154.4 253.547H1096.46C1095.87 232.394 1093.38 212.745 1089.29 195.328H1134.87C1145.83 212.386 1152.77 232.219 1154.4 253.547ZM1096.35 272.953H1154.48C1152.83 293.989 1145.85 313.92 1134.77 331.172H1088.99C1093.27 313.211 1095.75 293.485 1096.35 272.953ZM1119.56 175.922H1083.73C1079.46 163.356 1074.28 152.431 1068.32 143.562C1088 150.082 1105.5 161.309 1119.56 175.922ZM989.181 143.562C983.213 152.431 978.032 163.356 973.762 175.922H937.929C951.998 161.309 969.503 150.082 989.181 143.562V143.562ZM903.153 272.953H961.061C961.449 286.305 962.614 299.287 964.593 311.766H912.652C907.374 299.258 904.181 286.276 903.153 272.953V272.953ZM601.812 331.172H1048.16C1053.5 331.172 1057.86 335.529 1057.86 340.875V369.984H743.342L723.936 389.391H592.109V340.875C592.109 335.529 596.466 331.172 601.812 331.172V331.172ZM1048.16 699.891H601.812C596.466 699.891 592.109 695.534 592.109 690.188V408.797H731.97L751.376 389.391H1057.86V690.188C1057.86 695.534 1053.5 699.891 1048.16 699.891ZM1077.27 379.542V350.578H1119.39C1107.6 362.853 1093.35 372.808 1077.27 379.542Z" fill="black"/>
<path d="M999.641 214.734H1019.05V234.141H999.641V214.734Z" fill="black"/>
<path d="M1038.45 214.734H1057.86V234.141H1038.45V214.734Z" fill="black"/>
<path d="M960.892 536.741L897.991 496.334L960.892 592.684L1023.84 496.334L960.892 536.741Z" fill="#FF30A0"/>
<path d="M960.892 518.221L1021.57 479.281L960.892 369.8L900.218 479.155L960.892 518.221Z" fill="#FF30A0"/>
</svg>
