<?xml version="1.0" ?><svg height="56px" version="1.1" viewBox="0 0 60 56" width="60px" xmlns="http://www.w3.org/2000/svg" xmlns:xlink="http://www.w3.org/1999/xlink"><title/><desc/><defs/><g fill="none" fill-rule="evenodd" id="Page-1" stroke="none" stroke-width="1"><g id="004---Ethereum-"><g fill-rule="nonzero" id="Colour" transform="translate(1.000000, 1.000000)"><path d="M58,27 C58,27.34 57.99,27.67 57.97,28 C57.9103012,30.0280389 57.6115702,32.0419553 57.08,34 C56.9,34.68 56.69,35.35 56.46,36 C55.7145582,38.1192934 54.703143,40.1354034 53.45,42 C52.99,42.69 52.49,43.36 51.97,44 C46.8494695,50.3298949 39.1417057,54.0055095 31,54 C30.33,54 29.66,53.98 29,53.92 L29,0.08 C29.66,0.02 30.33,-1.12865446e-16 31,-1.12865446e-16 C39.1417119,-0.0055368808 46.8494869,3.67008303 51.97,10 C52.4967458,10.6412812 52.9907105,11.3088011 53.45,12 C54.7031548,13.8645897 55.7145708,15.8807013 56.46,18 C56.69,18.65 56.9,19.32 57.08,20 C57.6115747,21.9580437 57.9103057,23.9719607 57.97,26 C57.99,26.33 58,26.66 58,27 Z" fill="#FFA800" id="Shape"/><circle cx="27" cy="27" fill="#FFA800" id="Oval" r="27"/><ellipse cx="25.5" cy="27" fill="#FEDD0A" id="Oval" rx="25.5" ry="27"/><path d="M27,46 C16.5065898,46 8,37.4934102 8,27 C8,16.5065898 16.5065898,8 27,8 C37.4934102,8 46,16.5065898 46,27 C45.9880746,37.4884666 37.4884666,45.9880746 27,46 Z" fill="#FBC309" id="Shape"/><polygon fill="#1CD759" id="Shape" points="35 24.63 27 20.68 27 12"/><polygon fill="#1CD759" id="Shape" points="27 12 27 20.68 19 24.63"/><polygon fill="#1CD759" id="Shape" points="35 29.37 27 42 27 33.32"/><polygon fill="#1CD759" id="Shape" points="27 33.32 27 42 19 29.37"/><polygon fill="#1CD759" id="Shape" points="35 24.632 27 28.579 19 24.632 27 20.684"/></g><g fill="#FFFFFF" fill-rule="nonzero" id="whites" transform="translate(1.000000, 0.000000)"><path d="M27.91,54.98 C27.61,54.99 27.3,55 27,55 C26.74,55 26.49,54.99 26.23,54.98 C25.99,54.99 25.74,55 25.5,55 C11.42,55 0,42.91 0,28 C0,13.09 11.42,1 25.5,1 C25.74,1 25.99,1.01 26.23,1.02 C26.49,1.01 26.74,1 27,1 L27.9,1.02 C14.1,1.35 3,13.3 3,28 C3,42.7 14.1,54.66 27.91,54.98 Z" id="Shape"/><path d="M32,1.08 C31.83,1.07005 31.66,1.06 30.74,1.01005 C30.8264015,1.00170564 30.9132122,0.998350071 31,1 C31.5,1 32,1.01 32.5,1.05 C32.3328761,1.04974632 32.1658946,1.05976521 32,1.08 Z" id="Shape"/><path d="M32,54.92 C32.1658918,54.9402655 32.3328752,54.9502845 32.5,54.95 C32,54.99 31.5,55 31,55 C30.9065551,55.0016665 30.813088,54.9983284 30.72,54.99 C31.15,54.98 31.58,54.95 32,54.92 Z" id="Shape"/><path d="M29,54.92 C29.17,54.94 29.34,54.95 30.26,54.99 C30.1735976,54.9983277 30.0867868,55.0016665 30,55 C29.74,55 29.49,54.99 29.23,54.98 C28.99,54.99 28.74,55 28.5,55 C28.3330814,55.0035353 28.1661029,54.9968562 28,54.98 C28.34,54.96 28.67,54.94 29,54.92 Z" id="Shape"/><path d="M29,1.08 L28,1.02 C28.1661051,1.00317474 28.3330817,0.996495677 28.5,1 C28.74,1 28.99,1.01 29.23,1.02 C29.49,1.01 29.74,1 30,1 C30.17,1 30.34,1 30.5,1.01 C30,1.01 29.5,1.04 29,1.08 Z" id="Shape"/></g><g id="Outline"><path d="M0,28 C0.0306901559,23.4870706 1.12568458,19.0450456 3.196,15.0349 C4.37755876,12.7824764 5.86210237,10.7025279 7.60823,8.85306 C7.82402,8.62029 8.03114,8.37886 8.25438,8.15357 L8.95863,7.51218 C9.4348,7.09255 9.88453,6.64089 10.38374,6.24918 C11.3759146,5.45587745 12.4197735,4.72946972 13.5084,4.07477 C17.8790788,1.4252804 22.8889969,0.0165840584 28,8.8817842e-16 L28,2 C23.2549088,2.01635833 18.60386,3.32467787 14.54611,5.78452 C13.5349246,6.39221301 12.5652202,7.06640031 11.6434,7.80263 C11.17923,8.16593 10.76355,8.58798 10.32049,8.97687 L9.665,9.57135 C9.45772,9.78076 9.26629,10.00601 9.066,10.22235 C7.44402626,11.9396126 6.06509237,13.8710958 4.9677,15.96287 C3.04722327,19.6866337 2.03055571,23.8102848 2,28 L0,28 Z" fill="#FFFFFF" fill-rule="nonzero" id="Shape"/><path d="M1.47687,23.02913 C1.21306057,22.9827787 0.941783406,23.0466101 0.72632216,23.2057337 C0.510860914,23.3648573 0.370058005,23.6053574 0.33676,23.87113 C0.134896118,25.2386389 0.0224042111,26.617854 0,28 L2,28 C2.02240649,26.7159671 2.12767871,25.4347197 2.31516,24.16425 C2.37926263,23.623892 2.0121755,23.126823 1.47687,23.02913 Z" fill="#000000" fill-rule="nonzero" id="Shape"/><path d="M28,2 L28,0 C22.8889925,0.0165852592 17.8790707,1.42528514 13.50839,4.07478 C12.4197635,4.72947972 11.3759046,5.45588745 10.38373,6.24919 C9.88452,6.64088 9.43479,7.09254 8.95862,7.51219 L8.25437,8.15358 C8.03113,8.37888 7.82401,8.6203 7.60822,8.85307 C5.86209664,10.7025355 4.37755644,12.7824805 3.196,15.0349 L2.74532,15.96909 C2.62251992,16.2064564 2.60318162,16.4839948 2.69187649,16.7360978 C2.78057136,16.9882008 2.96942708,17.1924924 3.2138,17.30068 C3.71370276,17.5179963 4.29660057,17.3129275 4.55032,16.83048 L4.96771,15.96287 C6.0650985,13.8710928 7.44402903,11.9396063 9.066,10.22234 C9.26632,10.00602 9.45775,9.78077 9.665,9.57134 L10.32049,8.97686 C10.76354,8.58797 11.17922,8.16592 11.6434,7.80262 C12.5652202,7.06639031 13.5349246,6.39220301 14.54611,5.78451 C18.603861,3.32467138 23.2549097,2.01635532 28,2 Z" fill="#000000" fill-rule="nonzero" id="Shape"/><path d="M1.22089,19.82233 C1.15533731,20.0885751 1.18923958,20.3695934 1.31623,20.61261 L1.43015,20.77129 C1.4740781,20.8232487 1.52487831,20.8689824 1.58115,20.90723 C1.62853738,20.950043 1.682186,20.985367 1.74024,21.01198 C1.80118357,21.0398771 1.86400348,21.063478 1.92824,21.08261 C2.18313407,21.14594 2.45241961,21.1132639 2.68477,20.99081 C2.79424835,20.925881 2.8899935,20.8401974 2.96663,20.73857 C3.19155218,20.4271607 3.23496832,20.0200061 3.08077,19.66817 C3.01966691,19.5543644 2.93779253,19.4530076 2.83938,19.36934 C2.74248414,19.2823217 2.62966311,19.2148783 2.50714,19.17073 C2.25291365,19.0870017 1.97626121,19.1039301 1.73414,19.21803 C1.48853987,19.3419758 1.30344559,19.5599056 1.22089,19.82233 Z" fill="#000000" fill-rule="nonzero" id="Shape"/><path d="M1,28 C0.999795127,42.7972566 12.9135459,54.8358987 27.71,54.99 C27.8064296,54.9983308 27.9032256,55.0016686 28,55 C29.9979067,55.0029536 31.9900134,54.7849621 33.94,54.35 C34.21,54.29 34.48,54.22 34.75,54.15 C46.8700924,51.0179048 55.2492617,39.9675574 54.9944233,27.4518985 C54.739585,14.9362397 45.9175425,4.2361357 33.68,1.6 C31.9073717,1.22490675 30.1017968,1.02726497 28.29,1.01 C28.1935704,1.00166921 28.0967744,0.998331415 28,1" id="Shape" stroke="#000000" stroke-linecap="round" stroke-linejoin="round" stroke-width="2"/><path d="M27.93788,46.99355 L27.79388,46.99194 C17.342609,46.8804909 8.94459625,38.3471658 9.00020018,27.8954486 C9.0558041,17.4437313 17.5441348,9.00024283 27.996,9 L28.06094,9.00645 L28.20373,9.00806 C29.481456,9.02036264 30.7548018,9.1595323 32.00502,9.42352 C40.6141003,11.282185 46.8183722,18.8120833 46.9961629,27.617723 C47.1739535,36.4233626 41.2786797,44.1975574 32.75164,46.40221 C32.54149,46.45666 32.36564,46.50265 32.18935,46.54177 C30.8152509,46.8474872 29.4116967,47.0011543 28.004,47 L27.93788,46.99355 Z" id="Shape" stroke="#000000" stroke-linecap="round" stroke-linejoin="round" stroke-width="2"/><path d="M30,54.92 C30.66,54.98 31.33,55 32,55 C46.9116882,55 59,42.9116882 59,28 C59,13.0883118 46.9116882,1 32,1 C31.33,1 30.66,1.02 30,1.08" id="Shape" stroke="#000000" stroke-linecap="round" stroke-linejoin="round" stroke-width="2"/><path d="M53.75,12 L49.75,12" id="Shape" stroke="#000000" stroke-linecap="round" stroke-linejoin="round" stroke-width="2"/><path d="M53.75,44 L49.75,44" id="Shape" stroke="#000000" stroke-linecap="round" stroke-linejoin="round" stroke-width="2"/><path d="M57.8,20 L53.8,20" id="Shape" stroke="#000000" stroke-linecap="round" stroke-linejoin="round" stroke-width="2"/><path d="M59,28 L55,28" id="Shape" stroke="#000000" stroke-linecap="round" stroke-linejoin="round" stroke-width="2"/><path d="M57.8,36 L53.8,36" id="Shape" stroke="#000000" stroke-linecap="round" stroke-linejoin="round" stroke-width="2"/><polygon id="Shape" points="36 25.632 28 21.684 20 25.632 28 13" stroke="#000000" stroke-linecap="round" stroke-linejoin="round" stroke-width="2"/><polygon id="Shape" points="36 30.368 28 43 20 30.368 28 34.316" stroke="#000000" stroke-linecap="round" stroke-linejoin="round" stroke-width="2"/><polygon id="Shape" points="36 25.632 28 29.579 20 25.632 28 21.684" stroke="#000000" stroke-linecap="round" stroke-linejoin="round" stroke-width="2"/><path d="M28,21.68 L28,13" id="Shape" stroke="#000000" stroke-linecap="round" stroke-linejoin="round" stroke-width="2"/><path d="M28,42 L28,34.32" id="Shape" stroke="#000000" stroke-linecap="round" stroke-linejoin="round" stroke-width="2"/></g></g></g></svg>