<svg width="423" height="423" viewBox="0 0 423 423" fill="none" xmlns="http://www.w3.org/2000/svg">
<path d="M284.431 175.034C292.477 175.058 298.994 181.575 299.017 189.621V233.379C298.994 241.425 292.477 247.942 284.431 247.966C292.477 247.989 298.994 254.506 299.017 262.552V306.31C298.994 314.356 292.477 320.873 284.431 320.897H138.569C130.523 320.873 124.006 314.356 123.983 306.31V262.552C124.006 254.506 130.523 247.989 138.569 247.966C130.523 247.942 124.006 241.425 123.983 233.379V189.621C124.006 181.575 130.523 175.058 138.569 175.034C130.523 175.011 124.006 168.494 123.983 160.448V116.69C124.006 108.644 130.523 102.127 138.569 102.103H284.431C292.477 102.127 298.994 108.644 299.017 116.69V160.448C298.994 168.494 292.477 175.011 284.431 175.034Z" fill="#3F5C6C"/>
<path d="M284.431 175.034H138.569C130.513 175.034 123.983 181.565 123.983 189.621V233.379C123.983 241.435 130.513 247.966 138.569 247.966H284.431C292.487 247.966 299.017 241.435 299.017 233.379V189.621C299.017 181.565 292.487 175.034 284.431 175.034Z" fill="#547580"/>
<path d="M160.448 291.724H153.155C149.127 291.724 145.862 288.459 145.862 284.431C145.862 280.403 149.127 277.138 153.155 277.138H160.448C164.476 277.138 167.741 280.403 167.741 284.431C167.741 288.459 164.476 291.724 160.448 291.724Z" fill="#14A085"/>
<path d="M269.845 291.724H189.621C185.593 291.724 182.328 288.459 182.328 284.431C182.328 280.403 185.593 277.138 189.621 277.138H269.845C273.873 277.138 277.138 280.403 277.138 284.431C277.138 288.459 273.873 291.724 269.845 291.724Z" fill="#14A085"/>
<path d="M160.448 218.793H153.155C149.127 218.793 145.862 215.528 145.862 211.5C145.862 207.472 149.127 204.207 153.155 204.207H160.448C164.476 204.207 167.741 207.472 167.741 211.5C167.741 215.528 164.476 218.793 160.448 218.793Z" fill="#14A085"/>
<path d="M269.845 218.793H189.621C185.593 218.793 182.328 215.528 182.328 211.5C182.328 207.472 185.593 204.207 189.621 204.207H269.845C273.873 204.207 277.138 207.472 277.138 211.5C277.138 215.528 273.873 218.793 269.845 218.793Z" fill="#14A085"/>
<path d="M160.448 145.862H153.155C149.127 145.862 145.862 142.597 145.862 138.569C145.862 134.541 149.127 131.276 153.155 131.276H160.448C164.476 131.276 167.741 134.541 167.741 138.569C167.741 142.597 164.476 145.862 160.448 145.862Z" fill="#14A085"/>
<path d="M269.845 145.862H189.621C185.593 145.862 182.328 142.597 182.328 138.569C182.328 134.541 185.593 131.276 189.621 131.276H269.845C273.873 131.276 277.138 134.541 277.138 138.569C277.138 142.597 273.873 145.862 269.845 145.862Z" fill="#14A085"/>
<path d="M382.663 182.546C379.212 182.543 376.235 180.121 375.531 176.742C369.877 149.592 357.485 124.301 339.494 103.197C337.8 101.217 337.292 98.4838 338.16 96.027C339.028 93.5701 341.141 91.7631 343.703 91.2865C346.264 90.8099 348.886 91.7361 350.579 93.7164C370.166 116.684 383.658 144.211 389.812 173.763C390.207 175.656 389.833 177.629 388.773 179.247C387.714 180.866 386.054 181.996 384.161 182.391C383.668 182.493 383.166 182.545 382.663 182.546Z" fill="#3B97D3"/>
<path d="M345.037 331.836C342.191 331.834 339.606 330.177 338.416 327.592C337.226 325.007 337.649 321.965 339.499 319.803C357.489 298.699 369.881 273.408 375.533 246.259C376.065 243.708 377.918 241.635 380.393 240.82C382.868 240.005 385.589 240.572 387.533 242.308C389.476 244.044 390.345 246.685 389.813 249.236C383.659 278.788 370.166 306.316 350.579 329.284C349.196 330.906 347.169 331.84 345.037 331.836V331.836Z" fill="#3B97D3"/>
<path d="M40.3366 182.546C39.8341 182.546 39.333 182.495 38.8408 182.393C36.9471 181.999 35.2878 180.868 34.2279 179.25C33.1681 177.631 32.7945 175.658 33.1894 173.765C39.3431 144.213 52.8344 116.685 72.4204 93.7164C75.0386 90.6552 79.6425 90.2961 82.7037 92.9142C85.7649 95.5323 86.1241 100.136 83.506 103.197C65.516 124.302 53.1242 149.592 47.4715 176.741C46.7671 180.121 43.7892 182.544 40.3366 182.546V182.546Z" fill="#3B97D3"/>
<path d="M77.9632 331.836C75.8306 331.84 73.8042 330.906 72.4205 329.284C52.8346 306.315 39.3434 278.788 33.1894 249.237C32.3673 245.293 34.8975 241.43 38.8408 240.608C42.7841 239.786 46.6472 242.316 47.4693 246.26C53.1228 273.409 65.5154 298.699 83.506 319.803C85.3565 321.966 85.7789 325.008 84.5879 327.594C83.3969 330.18 80.8101 331.836 77.9632 331.836Z" fill="#3B97D3"/>
<path d="M324.543 85.2564C322.806 85.2578 321.126 84.6368 319.807 83.506C298.703 65.5161 273.412 53.1243 246.263 47.4715C243.712 46.9397 241.639 45.0875 240.824 42.6125C240.009 40.1375 240.577 37.4157 242.313 35.4725C244.049 33.5293 246.69 32.6598 249.24 33.1916C278.79 39.3455 306.316 52.836 329.284 72.4205C331.604 74.4051 332.443 77.6254 331.385 80.49C330.327 83.3545 327.597 85.2566 324.543 85.2564V85.2564Z" fill="#3B97D3"/>
<path d="M98.4605 85.2564C95.4069 85.2566 92.6764 83.3545 91.6185 80.49C90.5606 77.6254 91.3993 74.4051 93.72 72.4205C116.687 52.8352 144.213 39.344 173.763 33.1895C177.707 32.3674 181.57 34.8976 182.392 38.8409C183.214 42.7842 180.684 46.6473 176.74 47.4694C149.591 53.1229 124.301 65.5154 103.197 83.506C101.878 84.637 100.198 85.258 98.4605 85.2564V85.2564Z" fill="#3B97D3"/>
<path d="M175.259 389.962C174.757 389.962 174.255 389.911 173.763 389.809C144.212 383.656 116.685 370.165 93.7163 350.58C91.7361 348.886 90.8098 346.264 91.2864 343.703C91.763 341.141 93.5701 339.028 96.0269 338.16C98.4838 337.292 101.217 337.8 103.197 339.494C124.301 357.484 149.592 369.876 176.741 375.528C180.4 376.29 182.891 379.695 182.509 383.413C182.128 387.131 178.997 389.959 175.26 389.962L175.259 389.962Z" fill="#3B97D3"/>
<path d="M247.741 389.962C244.003 389.959 240.873 387.132 240.491 383.414C240.11 379.696 242.601 376.291 246.26 375.529C273.408 369.876 298.699 357.484 319.803 339.494C321.783 337.8 324.516 337.292 326.973 338.16C329.43 339.028 331.237 341.141 331.714 343.703C332.19 346.264 331.264 348.886 329.284 350.579C306.316 370.166 278.788 383.658 249.237 389.812C248.745 389.913 248.244 389.963 247.741 389.962V389.962Z" fill="#3B97D3"/>
<path d="M335.271 102.315C343.327 102.315 349.857 95.7845 349.857 87.7287C349.857 79.673 343.327 73.1425 335.271 73.1425C327.216 73.1425 320.685 79.673 320.685 87.7287C320.685 95.7845 327.216 102.315 335.271 102.315Z" fill="#E64C3C"/>
<path d="M335.271 349.857C343.327 349.857 349.857 343.327 349.857 335.271C349.857 327.216 343.327 320.685 335.271 320.685C327.216 320.685 320.685 327.216 320.685 335.271C320.685 343.327 327.216 349.857 335.271 349.857Z" fill="#E64C3C"/>
<path d="M87.7288 349.857C95.7845 349.857 102.315 343.327 102.315 335.271C102.315 327.216 95.7845 320.685 87.7288 320.685C79.673 320.685 73.1426 327.216 73.1426 335.271C73.1426 343.327 79.673 349.857 87.7288 349.857Z" fill="#E64C3C"/>
<path d="M87.7288 102.315C95.7845 102.315 102.315 95.7845 102.315 87.7287C102.315 79.673 95.7845 73.1425 87.7288 73.1425C79.673 73.1425 73.1426 79.673 73.1426 87.7287C73.1426 95.7845 79.673 102.315 87.7288 102.315Z" fill="#E64C3C"/>
<path d="M36.4655 247.966C56.6049 247.966 72.931 231.639 72.931 211.5C72.931 191.361 56.6049 175.034 36.4655 175.034C16.3262 175.034 0 191.361 0 211.5C0 231.639 16.3262 247.966 36.4655 247.966Z" fill="#F3D55B"/>
<path d="M211.5 423C231.639 423 247.965 406.674 247.965 386.534C247.965 366.395 231.639 350.069 211.5 350.069C191.361 350.069 175.034 366.395 175.034 386.534C175.034 406.674 191.361 423 211.5 423Z" fill="#F3D55B"/>
<path d="M386.534 247.966C406.674 247.966 423 231.639 423 211.5C423 191.361 406.674 175.034 386.534 175.034C366.395 175.034 350.069 191.361 350.069 211.5C350.069 231.639 366.395 247.966 386.534 247.966Z" fill="#F3D55B"/>
<path d="M211.5 72.931C231.639 72.931 247.965 56.6049 247.965 36.4655C247.965 16.3262 231.639 0 211.5 0C191.361 0 175.034 16.3262 175.034 36.4655C175.034 56.6049 191.361 72.931 211.5 72.931Z" fill="#F3D55B"/>
</svg>
