<svg width="416" height="367" viewBox="0 0 416 367" fill="none" xmlns="http://www.w3.org/2000/svg">
<path d="M346.33 291.105C346.33 304.023 335.863 314.463 322.971 314.463H23.3584C10.4665 314.463 0 304.023 0 291.105V23.3455C0 10.4536 10.4665 0 23.3584 0H322.984C335.876 0 346.343 10.4536 346.343 23.3455V291.105H346.33Z" fill="#325D72"/>
<path d="M346.33 23.3455C346.33 10.4536 335.863 0 322.971 0H23.3584C10.4665 0 0 10.4536 0 23.3455V61.0354H346.33V23.3455Z" fill="#2A323E"/>
<path d="M38.9088 44.4988C45.3555 44.4988 50.5815 39.2728 50.5815 32.8261C50.5815 26.3794 45.3555 21.1534 38.9088 21.1534C32.4621 21.1534 27.2361 26.3794 27.2361 32.8261C27.2361 39.2728 32.4621 44.4988 38.9088 44.4988Z" fill="white"/>
<path d="M77.8179 44.4988C84.2645 44.4988 89.4906 39.2728 89.4906 32.8261C89.4906 26.3794 84.2645 21.1534 77.8179 21.1534C71.3712 21.1534 66.1451 26.3794 66.1451 32.8261C66.1451 39.2728 71.3712 44.4988 77.8179 44.4988Z" fill="white"/>
<path d="M116.741 44.4863C123.18 44.4863 128.401 39.266 128.401 32.8265C128.401 26.387 123.18 21.1668 116.741 21.1668C110.301 21.1668 105.081 26.387 105.081 32.8265C105.081 39.266 110.301 44.4863 116.741 44.4863Z" fill="white"/>
<path d="M316.163 44.4988H173.172L188.723 21.1534H316.163V44.4988Z" fill="#ABADB0"/>
<path d="M95.3529 84.3806H27.2361V94.938H95.3529V84.3806Z" fill="#00BDF2"/>
<path d="M105.068 112.214H55.4458V122.771H105.068V112.214Z" fill="#EF4823"/>
<path d="M178.022 112.214H128.4V122.771H178.022V112.214Z" fill="#2A323E"/>
<path d="M291.844 112.214H201.38V122.771H291.844V112.214Z" fill="white"/>
<path d="M159.528 144.833H55.4458V155.39H159.528V144.833Z" fill="white"/>
<path d="M251.015 144.833H184.844V155.39H251.015V144.833Z" fill="#F89534"/>
<path d="M95.3529 173.197H27.2361V183.755H95.3529V173.197Z" fill="#00BDF2"/>
<path d="M105.068 201.03H55.4458V211.588H105.068V201.03Z" fill="white"/>
<path d="M178.022 201.03H128.4V211.588H178.022V201.03Z" fill="#00B15C"/>
<path d="M251.002 201.03H201.38V211.588H251.002V201.03Z" fill="white"/>
<path d="M105.068 233.636H55.4458V244.193H105.068V233.636Z" fill="white"/>
<path d="M201.381 233.636H128.4V244.193H201.381V233.636Z" fill="#EF4823"/>
<path d="M105.068 266.229H55.4458V276.786H105.068V266.229Z" fill="#00B15C"/>
<path d="M184.844 266.229H128.4V276.786H184.844V266.229Z" fill="#F89534"/>
<path d="M415.031 267.5C415.031 322.115 370.778 366.394 316.189 366.394C261.521 366.394 217.295 322.115 217.295 267.5C217.295 212.885 261.521 168.606 316.189 168.606C370.778 168.606 415.031 212.885 415.031 267.5Z" fill="#FA9B19"/>
<path d="M413.786 283.362L316.189 211.147L282.805 266.502L299.367 285.321L281.534 275.114L316.215 323.828L346.227 361.751C381.245 350.558 407.807 320.391 413.786 283.362Z" fill="#DC8C1E"/>
<path d="M316.188 354.994C267.902 354.994 228.669 315.761 228.669 267.5C228.669 219.266 267.902 180.007 316.188 180.007C364.422 180.007 403.682 219.266 403.682 267.5C403.682 315.761 364.422 354.994 316.188 354.994ZM316.188 191.433C274.244 191.433 240.095 225.582 240.095 267.5C240.095 309.418 274.244 343.594 316.188 343.594C358.08 343.594 392.255 309.418 392.255 267.5C392.255 225.582 358.08 191.433 316.188 191.433Z" fill="#FADC14"/>
<path d="M316.189 295.515L281.534 275.1L316.189 323.866L350.792 275.1L316.189 295.515Z" fill="#FADC14"/>
<path d="M316.189 286.189L349.521 266.488L316.189 211.134L282.805 266.488L316.189 286.189Z" fill="#FADC14"/>
</svg>
