<svg width="347" height="371" viewBox="0 0 347 371" fill="none" xmlns="http://www.w3.org/2000/svg">
<path d="M346.33 291.105C346.33 304.023 335.863 314.463 322.971 314.463H23.3584C10.4665 314.463 0 304.023 0 291.105V23.3455C0 10.4536 10.4665 0 23.3584 0H322.984C335.876 0 346.343 10.4536 346.343 23.3455V291.105H346.33Z" fill="#325D72"/>
<path d="M346.33 23.3455C346.33 10.4536 335.863 0 322.971 0H23.3584C10.4665 0 0 10.4536 0 23.3455V61.0354H346.33V23.3455Z" fill="#2A323E"/>
<path d="M38.9088 44.4988C45.3555 44.4988 50.5815 39.2728 50.5815 32.8261C50.5815 26.3794 45.3555 21.1534 38.9088 21.1534C32.4621 21.1534 27.2361 26.3794 27.2361 32.8261C27.2361 39.2728 32.4621 44.4988 38.9088 44.4988Z" fill="white"/>
<path d="M77.8179 44.4988C84.2645 44.4988 89.4906 39.2728 89.4906 32.8261C89.4906 26.3794 84.2645 21.1534 77.8179 21.1534C71.3712 21.1534 66.1451 26.3794 66.1451 32.8261C66.1451 39.2728 71.3712 44.4988 77.8179 44.4988Z" fill="white"/>
<path d="M116.741 44.4863C123.18 44.4863 128.401 39.266 128.401 32.8265C128.401 26.387 123.18 21.1668 116.741 21.1668C110.301 21.1668 105.081 26.387 105.081 32.8265C105.081 39.266 110.301 44.4863 116.741 44.4863Z" fill="white"/>
<path d="M316.163 44.4988H173.172L188.723 21.1534H316.163V44.4988Z" fill="#ABADB0"/>
<path d="M95.3529 84.3806H27.2361V94.938H95.3529V84.3806Z" fill="#00BDF2"/>
<path d="M105.068 112.214H55.4458V122.771H105.068V112.214Z" fill="#EF4823"/>
<path d="M178.022 112.214H128.4V122.771H178.022V112.214Z" fill="#2A323E"/>
<path d="M291.844 112.214H201.38V122.771H291.844V112.214Z" fill="white"/>
<path d="M159.528 144.833H55.4458V155.39H159.528V144.833Z" fill="white"/>
<path d="M251.015 144.833H184.844V155.39H251.015V144.833Z" fill="#F89534"/>
<path d="M95.3529 173.197H27.2361V183.755H95.3529V173.197Z" fill="#00BDF2"/>
<path d="M105.068 201.03H55.4458V211.588H105.068V201.03Z" fill="white"/>
<path d="M178.022 201.03H128.4V211.588H178.022V201.03Z" fill="#00B15C"/>
<path d="M251.002 201.03H201.38V211.588H251.002V201.03Z" fill="white"/>
<path d="M105.068 233.636H55.4458V244.193H105.068V233.636Z" fill="white"/>
<path d="M201.381 233.636H128.4V244.193H201.381V233.636Z" fill="#EF4823"/>
<path d="M105.068 266.229H55.4458V276.786H105.068V266.229Z" fill="#00B15C"/>
<path d="M184.844 266.229H128.4V276.786H184.844V266.229Z" fill="#F89534"/>
<path d="M271.736 271.894C271.736 326.509 227.483 370.788 172.894 370.788C118.227 370.788 74 326.509 74 271.894C74 217.279 118.227 173 172.894 173C227.483 173 271.736 217.279 271.736 271.894Z" fill="#FA9B19"/>
<path d="M270.491 287.756L172.894 215.541L139.51 270.896L156.072 289.715L138.239 279.507L172.92 328.222L202.932 366.145C237.95 354.952 264.512 324.785 270.491 287.756Z" fill="#DC8C1E"/>
<path d="M172.893 359.388C124.607 359.388 85.3739 320.155 85.3739 271.894C85.3739 223.66 124.607 184.401 172.893 184.401C221.128 184.401 260.387 223.66 260.387 271.894C260.387 320.155 221.128 359.388 172.893 359.388ZM172.893 195.827C130.949 195.827 96.8002 229.976 96.8002 271.894C96.8002 313.812 130.949 347.988 172.893 347.988C214.786 347.988 248.961 313.812 248.961 271.894C248.961 229.976 214.786 195.827 172.893 195.827Z" fill="#FADC14"/>
<path d="M172.894 299.908L138.239 279.494L172.894 328.26L207.497 279.494L172.894 299.908Z" fill="#FADC14"/>
<path d="M172.894 290.583L206.226 270.882L172.894 215.528L139.51 270.882L172.894 290.583Z" fill="#FADC14"/>
</svg>
